<svg xmlns="http://www.w3.org/2000/svg" viewBox="0 0 512 512">
  <defs>
    <linearGradient id="g" x1="0" y1="0" x2="1" y2="1">
      <stop offset="0" stop-color="#0f4f3c" />
      <stop offset="1" stop-color="#2d7d5f" />
    </linearGradient>
  </defs>
  <rect width="512" height="512" rx="120" fill="url(#g)" />
  <circle cx="256" cy="190" r="96" fill="#dbeed9" />
  <path d="M142 318c46 30 85 44 114 44s68-14 114-44v88H142z" fill="#f0e6cc"/>
  <path d="M256 122c-27 29-38 56-35 84 34-9 60-28 79-59 5 32-3 60-22 84 30-4 56-20 79-48 5 63-35 103-121 122-22-67-16-128 20-183z" fill="#0f4f3c"/>
</svg>
